<?xml version="1.0" encoding="UTF-8"?>
<svg width="29px" height="35px" viewBox="0 0 29 35" version="1.1" xmlns="http://www.w3.org/2000/svg" xmlns:xlink="http://www.w3.org/1999/xlink">
    <g id="Page-1" stroke="none" stroke-width="1" fill="none" fill-rule="evenodd">
        <g id="Gmail" transform="translate(-994.000000, -57.000000)">
            <g id="bell-outline-(2)" transform="translate(994.000000, 59.000000)">
                <g id="Group-2">
                    <path d="M23.3715739,23.8292784 L20.9691287,21.3859381 L20.9691287,15.3653319 C21.0352213,10.7423501 17.7197941,6.77838953 13.2012226,6.0779393 C10.6356282,5.73621615 8.04879151,6.52848423 6.10163056,8.2523248 C4.15446961,9.97616537 3.03559508,12.4645995 3.03087129,15.0818504 L3.03087129,21.3859381 L0.628426098,23.8292784 C0.0114810328,24.4636649 -0.169969186,25.4099906 0.167794132,26.2316335 C0.50555745,27.0532763 1.29688487,27.5905375 2.17666855,27.595532 L6.66123291,27.595532 L6.66123291,28.054502 C6.79103368,30.9077804 9.17848578,33.1172098 12,32.9951789 C14.8215142,33.1172098 17.2089663,30.9077804 17.3387671,28.054502 L17.3387671,27.595532 L21.8233314,27.595532 C22.7031151,27.5905375 23.4944425,27.0532763 23.8322059,26.2316335 C24.1699692,25.4099906 23.988519,24.4636649 23.3715739,23.8292784 Z M14.6693835,28.054502 C14.5156065,29.4034446 13.3392372,30.3909652 12,30.2953555 C10.6607628,30.3909652 9.48439346,29.4034446 9.33061645,28.054502 L9.33061645,27.595532 L14.6693835,27.595532 L14.6693835,28.054502 Z M3.3378504,24.8957086 L4.91278669,23.3028128 C5.41735276,22.7955208 5.70081858,22.1055013 5.70025483,21.3859381 L5.70025483,15.0818504 C5.7017258,13.2394736 6.48996677,11.487537 7.86245551,10.2761647 C9.21692969,9.03492961 11.0418092,8.45753485 12.8542027,8.69676803 C16.0456213,9.2208642 18.368151,12.0419843 18.2997452,15.3113354 L18.2997452,21.3859381 C18.295643,22.1035593 18.5741938,22.7933053 19.0738664,23.3028128 L20.6621496,24.8957086 L3.3378504,24.8957086 Z" id="Shape" fill="#191836" fill-rule="nonzero"></path>
                    <circle id="Oval-5" stroke="#F9FBFD" stroke-width="3" fill="#416AFF" cx="20" cy="7" r="7"></circle>
                </g>
            </g>
        </g>
    </g>
</svg>