<?xml version="1.0" encoding="UTF-8"?>
<?xml-stylesheet type="text/css" href="svg.css"?>
<svg width="32px" height="34px" viewBox="0 0 32 34" version="1.1" xmlns="http://www.w3.org/2000/svg" xmlns:xlink="http://www.w3.org/1999/xlink">
    <g id="Symbols" stroke="none" stroke-width="1" fill="none" fill-rule="evenodd">
        <g id="sidebar" transform="translate(-44.000000, -491.000000)" fill="#FFFFFF" fill-rule="nonzero">
            <g id="Group-5">
                <g id="trash" transform="translate(41.000000, 488.000000)">
                    <path d="M33.25,9.5 L25.3333333,9.5 L25.3333333,6.85583333 C25.2559954,4.74540842 23.4856399,3.09543715 21.375,3.16666667 L16.625,3.16666667 C14.5143601,3.09543715 12.7440046,4.74540842 12.6666667,6.85583333 L12.6666667,9.5 L4.75,9.5 C3.87554915,9.5 3.16666667,10.2088825 3.16666667,11.0833333 C3.16666667,11.9577842 3.87554915,12.6666667 4.75,12.6666667 L6.33333333,12.6666667 L6.33333333,32.0833333 C6.33333333,34.7066859 8.45998077,36.8333333 11.0833333,36.8333333 L26.9166667,36.8333333 C29.5400192,36.8333333 31.6666667,34.7066859 31.6666667,32.0833333 L31.6666667,12.6666667 L33.25,12.6666667 C34.1244509,12.6666667 34.8333333,11.9577842 34.8333333,11.0833333 C34.8333333,10.2088825 34.1244509,9.5 33.25,9.5 Z M15.8333333,6.85583333 C15.8333333,6.6025 16.1658333,6.33333333 16.625,6.33333333 L21.375,6.33333333 C21.8341667,6.33333333 22.1666667,6.6025 22.1666667,6.85583333 L22.1666667,9.5 L15.8333333,9.5 L15.8333333,6.85583333 Z" id="Shape"></path>
                </g>
            </g>
        </g>
    </g>
</svg>