<?xml version="1.0" encoding="UTF-8"?>
<?xml-stylesheet type="text/css" href="svg.css"?>
<svg width="32px" height="23px" viewBox="0 0 32 23" version="1.1" xmlns="http://www.w3.org/2000/svg" xmlns:xlink="http://www.w3.org/1999/xlink">
    <g id="Symbols" stroke="none" stroke-width="1" fill="none" fill-rule="evenodd">
        <g id="sidebar" transform="translate(-44.000000, -410.000000)" fill="#fff" fill-rule="nonzero">
            <g id="Group-5">
                <g id="cloud-upload" transform="translate(41.000000, 404.000000)">
                    <path d="M34.5325,18.4775 C34.4592114,18.1702364 34.3639668,17.8686284 34.2475,17.575 C34.1683333,17.385 34.0575,17.195 33.9625,16.9891667 C33.8675,16.7833333 33.725,16.5141667 33.5825,16.2925 C33.44,16.0708333 33.25,15.96 33.25,15.8333333 C33.25,15.7066667 32.9333333,15.4375 32.7591667,15.2475 C32.585,15.0575 32.4266667,14.9308333 32.2525,14.7725 L31.6666667,14.25 L31.0966667,13.87 C30.8729072,13.7330665 30.6401554,13.6114008 30.4,13.5058333 L29.7825,13.2208333 C29.5238833,13.1250519 29.2594664,13.0457269 28.9908333,12.9833333 C28.7780371,12.9207344 28.5611173,12.8731179 28.3416667,12.8408333 L27.9775,12.6666667 C26.6531645,8.84028165 23.0490847,6.27383479 19,6.27383479 C14.9509153,6.27383479 11.3468355,8.84028165 10.0225,12.6666667 L9.7375,12.7458333 C9.51804935,12.7781179 9.30112961,12.8257344 9.08833333,12.8883333 C8.81970028,12.9507269 8.55528336,13.0300519 8.29666667,13.1258333 L7.67916667,13.4108333 C7.43901129,13.5164008 7.2062595,13.6380665 6.9825,13.775 L6.4125,14.25 L5.82666667,14.7408333 C5.6525,14.8991667 5.47833333,15.0416667 5.32,15.2158333 C5.16166667,15.39 4.9875,15.6116667 4.82916667,15.8016667 C4.67083333,15.9916667 4.54416667,16.1658333 4.4175,16.3716667 C4.29083333,16.5775 4.16416667,16.8308333 4.0375,17.0683333 C3.91083333,17.3058333 3.83166667,17.4641667 3.7525,17.6541667 C3.63603318,17.947795 3.54078855,18.249403 3.4675,18.5566667 C3.4675,18.7308333 3.35666667,18.905 3.325,19.0791667 C3.22644803,19.5746758 3.17344925,20.0781643 3.16666667,20.5833333 C3.17408918,21.066734 3.22175388,21.5486771 3.30916667,22.0241667 C3.30916667,22.1825 3.38833333,22.325 3.42,22.4833333 C3.4982597,22.7943909 3.59340056,23.1009559 3.705,23.4016667 L3.895,23.8608333 C4.03437777,24.1661591 4.19303126,24.4623123 4.37,24.7475 L4.59166667,25.0958333 C4.61444579,25.1402071 4.64092863,25.1825797 4.67083333,25.2225 L4.75,25.3333333 C6.24509719,27.3267963 8.59150468,28.5 11.0833333,28.5 L15.8333333,28.5 L22.1666667,28.5 L26.9166667,28.5 C29.4084953,28.5 31.7549028,27.3267963 33.25,25.3333333 L33.3291667,25.2541667 C33.3590714,25.2142463 33.3855542,25.1718738 33.4083333,25.1275 L33.63,24.7791667 C33.8069687,24.4939789 33.9656222,24.1978257 34.105,23.8925 L34.295,23.4333333 C34.4065994,23.1326226 34.5017403,22.8260576 34.58,22.515 C34.58,22.3566667 34.6591667,22.2141667 34.6908333,22.0558333 C34.7800144,21.5699305 34.8276864,21.0773201 34.8333333,20.5833333 C34.8315039,20.0516966 34.7784814,19.5214715 34.675,19 C34.675,18.8258333 34.58,18.6516667 34.5325,18.4775 Z" id="Shape"></path>
                </g>
            </g>
        </g>
    </g>
</svg>