<?xml version="1.0" encoding="UTF-8"?>
<svg width="23px" height="27px" viewBox="0 0 23 27" version="1.1" xmlns="http://www.w3.org/2000/svg" xmlns:xlink="http://www.w3.org/1999/xlink">
    <g id="Symbols" stroke="none" stroke-width="1" fill="none" fill-rule="evenodd">
        <g id="Last-Modified" transform="translate(-310.000000, -69.000000)" fill="#45C7D8" fill-rule="nonzero">
            <g id="Group-5">
                <path d="M331.948812,76.1956136 L325.95492,69.4457352 C325.699694,69.1629431 325.336871,69.0011437 324.955938,69 L314.156132,69 C313.250283,68.9894383 312.377249,69.338956 311.729121,69.9718936 C311.080993,70.6048311 310.710872,71.4693316 310.700195,72.3751824 L310.700195,92.6248176 C310.710872,93.5306684 311.080993,94.3951689 311.729121,95.0281064 C312.377249,95.661044 313.250283,96.0105617 314.156132,96 L328.843868,96 C329.749717,96.0105617 330.622751,95.661044 331.270879,95.0281064 C331.919007,94.3951689 332.289128,93.5306684 332.299805,92.6248176 L332.299805,77.1000973 C332.298932,76.765525 332.173849,76.4431968 331.948812,76.1956136 Z M317.450073,82.5 L321.5,82.5 C322.245571,82.5 322.849976,83.1044047 322.849976,83.8499757 C322.849976,84.5955467 322.245571,85.1999513 321.5,85.1999513 L317.450073,85.1999513 C316.704502,85.1999513 316.100097,84.5955467 316.100097,83.8499757 C316.100097,83.1044047 316.704502,82.5 317.450073,82.5 Z M325.549927,90.599854 L317.450073,90.599854 C316.704502,90.599854 316.100097,89.9954493 316.100097,89.2498784 C316.100097,88.5043074 316.704502,87.8999027 317.450073,87.8999027 L325.549927,87.8999027 C326.295498,87.8999027 326.899903,88.5043074 326.899903,89.2498784 C326.899903,89.9954493 326.295498,90.599854 325.549927,90.599854 Z M325.158434,77.1000973 C324.579428,77.0430808 324.152963,76.5325237 324.199951,75.952618 L324.199951,71.7001946 L329.24886,77.1000973 L325.158434,77.1000973 Z" id="Shape"></path>
            </g>
        </g>
    </g>
</svg>