<?xml version="1.0" encoding="UTF-8"?>
<?xml-stylesheet type="text/css" href="svg.css"?>
<svg width="30px" height="31px" viewBox="0 0 30 31" version="1.1" xmlns="http://www.w3.org/2000/svg" xmlns:xlink="http://www.w3.org/1999/xlink">
    <g id="Symbols" stroke="none" stroke-width="1" fill="none" fill-rule="evenodd" opacity="1">
        <g id="sidebar" transform="translate(-45.000000, -244.000000)" fill="#FFFFFF" fill-rule="nonzero">
            <g id="Group-5">
                <g id="inbox-(1)" transform="translate(45.000000, 244.000000)">
                    <path d="M29.649975,14.6500052 L24.0833178,3.51667548 C23.2353236,1.81808003 21.4984913,0.74627866 19.5999922,0.75 L10.4000078,0.75 C8.50150875,0.74627866 6.7646764,1.81808003 5.91668217,3.51667548 L0.350024998,14.6500052 C0.117852513,15.1158234 -0.00201384854,15.629537 0,16.1500047 L0,25.75 C0,28.5114245 2.23859803,30.75 5.00001706,30.75 L24.9999829,30.75 C27.761402,30.75 30,28.5114245 30,25.75 L30,16.1500047 C30.0020138,15.629537 29.8821475,15.1158234 29.649975,14.6500052 Z M8.90001041,5.00000833 C9.18511913,4.43416886 9.76641415,4.07893252 10.4000078,4.08330138 L19.5999922,4.08330138 C20.2335858,4.07893252 20.8148809,4.43416886 21.0999896,5.00000833 L25.6333152,14.0833387 L21.6666553,14.0833387 C20.7461823,14.0833387 19.9999915,14.8295306 19.9999915,15.7500049 L19.9999915,19.0833371 C19.9999915,20.0038114 19.2538007,20.7500032 18.3333276,20.7500032 L11.6666724,20.7500032 C10.7461993,20.7500032 10.0000085,20.0038114 10.0000085,19.0833371 L10.0000085,15.7500049 C10.0000085,14.8295306 9.25381772,14.0833387 8.33334471,14.0833387 L4.36668481,14.0833387 L8.90001041,5.00000833 Z" id="Shape"></path>
                </g>
            </g>
        </g>
    </g>
</svg>