<?xml version="1.0" encoding="UTF-8"?>
<svg width="27px" height="27px" viewBox="0 0 27 27" version="1.1" xmlns="http://www.w3.org/2000/svg" xmlns:xlink="http://www.w3.org/1999/xlink">
    <g id="Page-1" stroke="none" stroke-width="1" fill="none" fill-rule="evenodd">
        <g id="Gmail" transform="translate(-264.000000, -856.000000)" fill="#FF9391" fill-rule="nonzero">
            <path d="M286.5,856 L268.5,856 C266.014719,856 264,858.014719 264,860.5 L264,878.5 C264,880.985281 266.014719,883 268.5,883 L286.5,883 C288.985281,883 291,880.985281 291,878.5 L291,860.5 C291,858.014719 288.985281,856 286.5,856 Z M271,861 C272.104569,861 273,861.895431 273,863 C273,864.104569 272.104569,865 271,865 C269.895431,865 269,864.104569 269,863 C269,861.895431 269.895431,861 271,861 L271,861 Z M286.995248,878.328624 C287.062454,879.184197 286.408989,879.931668 285.534075,880 L268,880 L279.061079,870.25745 C279.446002,869.914183 280.035046,869.914183 280.41997,870.25745 L286.995248,876.657248 L286.995248,878.328624 Z" id="Shape"></path>
        </g>
    </g>
</svg>