<?xml version="1.0" encoding="UTF-8"?>
<svg width="20px" height="20px" viewBox="0 0 20 20" version="1.1" xmlns="http://www.w3.org/2000/svg" xmlns:xlink="http://www.w3.org/1999/xlink">
    <g id="Symbols" stroke="none" stroke-width="1" fill="none" fill-rule="evenodd">
        <g transform="translate(-50.000000, -901.000000)" fill="#FFFFFF" fill-rule="nonzero">
            <g id="Group-5">
                <path d="M68.5714286,912.428571 L61.4285714,912.428571 L61.4285714,919.571429 C61.4285714,920.360407 60.7889782,921 60,921 C59.2110218,921 58.5714286,920.360407 58.5714286,919.571429 L58.5714286,912.428571 L51.4285714,912.428571 C50.6395932,912.428571 50,911.788978 50,911 C50,910.211022 50.6395932,909.571429 51.4285714,909.571429 L58.5714286,909.571429 L58.5714286,902.428571 C58.5714286,901.639593 59.2110218,901 60,901 C60.7889782,901 61.4285714,901.639593 61.4285714,902.428571 L61.4285714,909.571429 L68.5714286,909.571429 C69.3604068,909.571429 70,910.211022 70,911 C70,911.788978 69.3604068,912.428571 68.5714286,912.428571 Z" id="Shape"></path>
            </g>
        </g>
    </g>
</svg>