<?xml version="1.0" encoding="UTF-8"?>
<?xml-stylesheet type="text/css" href="svg.css"?>
<svg width="31px" height="30px" viewBox="0 0 31 30" version="1.1" xmlns="http://www.w3.org/2000/svg" xmlns:xlink="http://www.w3.org/1999/xlink">
    <g id="Symbols" stroke="none" stroke-width="1" fill="none" fill-rule="evenodd">
        <g id="sidebar" transform="translate(-44.000000, -324.000000)" fill="#fff" fill-rule="nonzero">
            <g id="Group-5">
                <g id="star-(5)" transform="translate(41.000000, 321.000000)">
                    <path d="M27.1131343,32.9922486 C26.864723,32.9932642 26.619695,32.9337319 26.3986092,32.8186468 L18.4767003,28.6048582 L10.5547914,32.8186468 C10.0299779,33.0990343 9.39383621,33.0513948 8.91515612,32.6958577 C8.43647604,32.3403205 8.19877295,31.7389161 8.30248392,31.145757 L9.85579939,22.2605022 L3.45613964,15.9477102 C3.04925833,15.5351709 2.89987314,14.9280582 3.06781077,14.3695122 C3.25148122,13.7972921 3.7395,13.3810344 4.32599631,13.2963375 L13.1798945,11.9864332 L17.0787163,3.89027744 C17.3382543,3.34581439 17.8812794,3 18.4767003,3 C19.0721212,3 19.6151462,3.34581439 19.8746842,3.89027744 L23.8201055,11.9706512 L32.6740037,13.2805556 C33.2605,13.3652525 33.7485188,13.7815101 33.9321892,14.3537302 C34.1001269,14.9122762 33.9507417,15.5193889 33.5438604,15.9319282 L27.1442006,22.2447202 L28.6975161,31.129975 C28.8107418,31.7341046 28.5682532,32.3500374 28.0761899,32.708173 C27.7949122,32.908441 27.456236,33.0083414 27.1131343,32.9922486 L27.1131343,32.9922486 Z" id="Shape"></path>
                </g>
            </g>
        </g>
    </g>
</svg>